<svg t="1733741998657" class="icon" viewBox="0 0 1024 1024" version="1.1" xmlns="http://www.w3.org/2000/svg" p-id="1161"
  width="200" height="200">
  <path
    d="M516.67 843a214.3 214.3 0 0 1-213.83-200.07l-10.68-160.39A214.13 214.13 0 0 1 506 254h21.34a214.13 214.13 0 0 1 213.84 228.54L730.5 642.93A214.3 214.3 0 0 1 516.67 843zM506 304a164.32 164.32 0 0 0-163.95 175.22l10.68 160.39a164.3 164.3 0 0 0 327.88 0l10.68-160.39A164.32 164.32 0 0 0 527.34 304z"
    p-id="1162" fill="#035e09"></path>
  <path
    d="M349.85 358.65a25 25 0 0 1-22.38-13.82c-12.26-24.54-28.25-39.71-48.86-46.37-37.71-12.18-79.06 8.56-79.47 8.78a25 25 0 0 1-36.09-27.13c0.69-3.4 17.81-83.56 95.07-104.91 3.39-0.93 33.63-8.66 71.31-0.57 35.66 7.65 84.46 31.23 114.38 100.11A25 25 0 1 1 398 294.66c-16.93-39-42.91-62.76-77.22-70.74a115.37 115.37 0 0 0-49.47-0.48 74.79 74.79 0 0 0-35.75 22.22c17.86-2 38.13-1.35 58.47 5.23 33.57 10.85 59.88 34.93 78.2 71.57a25 25 0 0 1-22.34 36.19zM682.58 358.65a25 25 0 0 1-22.34-36.19c18.32-36.64 44.64-60.72 78.21-71.57 20.33-6.57 40.6-7.22 58.47-5.23a75 75 0 0 0-35.76-22.22 115.5 115.5 0 0 0-49.47 0.48c-34.3 8-60.28 31.78-77.21 70.74a25 25 0 1 1-45.86-19.92c29.93-68.88 78.72-92.46 114.39-100.11 37.68-8.09 67.91-0.36 71.24 0.55 77.33 21.37 94.44 101.53 95.13 104.93a24.92 24.92 0 0 1-36 27.15c-1.54-0.77-42.45-20.95-79.8-8.7-20.48 6.71-36.37 21.84-48.58 46.27a25 25 0 0 1-22.42 13.82zM790.31 583.78a185.48 185.48 0 0 1-19.32-1 225.33 225.33 0 0 1-66.82-18 25 25 0 0 1 21.45-45.16 177 177 0 0 0 51.82 13.58c34.08 3.28 60.34-6.23 78.08-28.25a7.91 7.91 0 0 0 1.27-7.23 11.37 11.37 0 0 0-6.87-7.66l-141.16-53.67a25 25 0 0 1 17.75-46.74l141.16 53.6A61.5 61.5 0 0 1 905 484.57a57.47 57.47 0 0 1-10.58 51.69c-25.17 31.29-60.92 47.52-104.11 47.52zM240 583.78c-43.2 0-78.94-16.23-104.15-47.52a57.47 57.47 0 0 1-10.58-51.69 61.5 61.5 0 0 1 37.37-41.32l141.16-53.6a25 25 0 0 1 17.75 46.74L180.37 490a11.37 11.37 0 0 0-6.87 7.66 7.91 7.91 0 0 0 1.27 7.23c18 22.3 44.65 31.76 79.32 28.13a177.15 177.15 0 0 0 50.51-13.43 25 25 0 1 1 21.52 45.13 225.33 225.33 0 0 1-66.82 18 185.48 185.48 0 0 1-19.3 1.06zM516.67 842.63a25 25 0 0 1-25-25v-79a25 25 0 0 1 50 0v79a25 25 0 0 1-25 25z"
    p-id="1163" fill="#035e09"></path>
  <path d="M459.07 732.22a57.6 32 0 1 0 115.2 0 57.6 32 0 1 0-115.2 0Z" p-id="1164" fill="#035e09"></path>
  <path d="M417.48 477.42m-33.53 0a33.53 33.53 0 1 0 67.06 0 33.53 33.53 0 1 0-67.06 0Z" p-id="1165" fill="#035e09">
  </path>
  <path d="M614.32 477.42m-33.53 0a33.53 33.53 0 1 0 67.06 0 33.53 33.53 0 1 0-67.06 0Z" p-id="1166" fill="#035e09">
  </path>
</svg>