<svg t="1733734538869" class="icon" viewBox="0 0 1024 1024" version="1.1" xmlns="http://www.w3.org/2000/svg" p-id="4459"
  width="200" height="200">
  <path
    d="M469.062 859.046c-11.782 0-21.328-9.562-21.328-21.344v-21.312c0-11.78 9.546-21.342 21.328-21.342 11.78 0 21.328 9.562 21.328 21.342v21.312c-0.002 11.782-9.548 21.344-21.328 21.344z"
    fill="#F6BB42" p-id="4460"></path>
  <path
    d="M551.308 801.174c-5.094-8.968-15.124-37.656-17.046-83.186-0.794-18.906-15.42-50.936-65.2-50.936-49.764 0-64.404 32.03-65.2 50.936-1.922 45.53-11.954 74.216-17.062 83.186-3.718 5.842-4.234 12.904-1.61 19.31 2.624 6.438 8.39 10.968 15.17 12.5 2.14 0.5 22.218 4.718 68.7 4.718 46.5 0 66.56-4.218 68.7-4.718 6.766-1.532 12.546-6.062 15.172-12.5 2.626-6.406 2.096-13.468-1.624-19.31z"
    fill="#FFCE54" p-id="4461"></path>
  <path
    d="M951.636 547.714c-26.656-40.062-53.592-77.062-64.466-91.842 0.812-10.25 1.468-28.436-0.844-53.06-2.218-23.906-30.748-95.81-62.246-156.962-18.844-36.56-37-66.154-53.968-87.996-24.154-31-45.152-45.436-66.122-45.436-31.906 0-62.622 22.562-91.37 67.122-10.094 15.624-18.094 31.156-23.532 42.656-75.42-24.312-358.222-111.62-529.324-111.62-14.624 0-28.296 0.656-40.624 1.938a21.376 21.376 0 0 0-14.764 8.312 21.308 21.308 0 0 0-4.062 16.438l127.996 767.97a21.34 21.34 0 0 0 13.156 16.31c2.546 1 5.218 1.5 7.876 1.5 4.578 0 9.124-1.468 12.888-4.342l297.176-225.12c15.376-7.438 31.952-14.31 42.062-17.592 73.998 115.778 246.084 125.372 283.082 126.09 18.906 11.404 62.25 35.624 88.686 35.624 27.31 0 91.528-15.812 98.776-17.624a21.256 21.256 0 0 0 13.312-10.062c1.594-2.718 38.654-67.746 38.654-118.59-0.002-16.282-8.22-47.376-72.342-143.714z"
    fill="#965353" p-id="4462"></path>
  <path
    d="M746.708 411.062c0 11.782-9.562 21.344-21.342 21.344-11.782 0-21.344-9.562-21.344-21.344 0-11.78 9.562-21.342 21.344-21.342 11.778 0 21.342 9.562 21.342 21.342zM1003.696 633.15c-0.782-1.188-1.312-2.188-1.562-2.938v-0.032c-16.53 4.718-58.964 39.558 11.844 114.962 5.718-17.532 10-36.438 10-53.718-0.002-9.996-3.096-25.528-20.282-58.274z"
    fill="#434A54" p-id="4463"></path>
  <path
    d="M981.384 120.918a21.338 21.338 0 0 0-13.218-18.374 21.36 21.36 0 0 0-22.342 3.874c-0.656 0.562-66.808 58.998-159.588 68.778-20.688 2.156-41.124 3.28-60.746 3.28-29.594 0-52.25-2.406-70.436-4.342-11.966-1.282-21.404-2.282-29.716-2.282-6.186 0-11.216 0.562-15.842 1.75-18.968 4.842-34.188 15.656-43.968 31.28-8.75 13.906-12.406 30.748-10.312 47.374 4.406 34.936 32.188 59.34 67.56 59.34 82.872 0 153.086-9.468 208.68-28.154 45.874-15.406 82.214-37.156 108.026-64.654 18.218-19.406 31.216-42.03 37.624-65.404 4.998-18.216 4.372-31.06 4.278-32.466z"
    fill="#CCD1D9" p-id="4464"></path>
  <path
    d="M511.998 198.416a3622.506 3622.506 0 0 0-85.324-24.092v544.042l32.732-24.782c15.376-7.438 31.952-14.31 42.062-17.592a205.774 205.774 0 0 0 10.53 14.936V198.416z"
    fill="#ED5564" p-id="4465"></path>
  <path d="M663.958 784.236c54.124 15.094 102.872 17.5 120.59 17.844l19.876-21.312-140.466 3.468z" opacity=".1"
    p-id="4466"></path>
</svg>